<svg width="50" height="50" viewBox="0 0 50 50" fill="none" xmlns="http://www.w3.org/2000/svg">
<path fill-rule="evenodd" clip-rule="evenodd" d="M30.108 2.1158C27.2869 -0.705266 22.7131 -0.705267 19.892 2.1158L2.1158 19.892C-0.705266 22.7131 -0.705267 27.2869 2.1158 30.108L19.892 47.8842C22.7131 50.7053 27.2869 50.7053 30.108 47.8842L47.8842 30.108C50.7053 27.2869 50.7053 22.7131 47.8842 19.892L30.108 2.1158ZM12.6637 30.7483L7.54073 25.6253C6.97652 25.0611 6.97652 24.1463 7.54073 23.5821L19.4886 11.6342C20.0529 11.07 20.9676 11.07 21.5318 11.6342L24.0386 14.141C24.6028 14.7052 25.5176 14.7052 26.0818 14.141L28.5886 11.6342C29.1528 11.07 30.0675 11.07 30.6317 11.6342L42.5797 23.5821C43.1439 24.1463 43.1439 25.0611 42.5797 25.6253L26.0818 42.1232C25.5176 42.6874 24.6028 42.6874 24.0386 42.1232L17.746 35.8306C17.1818 35.2664 17.1818 34.3516 17.746 33.7874L20.3665 31.1669C20.9307 30.6027 21.8455 30.6027 22.4097 31.1669L24.0386 32.7958C24.6028 33.36 25.5176 33.36 26.0818 32.7958L33.2523 25.6253C33.8165 25.0611 33.8165 24.1463 33.2523 23.5821L30.6317 20.9616C30.0675 20.3974 29.1528 20.3974 28.5886 20.9616L26.0818 23.4684C25.5176 24.0326 24.6028 24.0326 24.0386 23.4684L21.5318 20.9616C20.9676 20.3974 20.0529 20.3974 19.4886 20.9616L16.8681 23.5821C16.3039 24.1463 16.3039 25.0611 16.8681 25.6253L17.3274 26.0846C17.8916 26.6488 17.8916 27.5636 17.3274 28.1278L14.7069 30.7483C14.1427 31.3125 13.2279 31.3125 12.6637 30.7483Z" fill="#6655D0"/>
</svg>
