<svg width="417" height="417" viewBox="0 0 417 417" fill="none" xmlns="http://www.w3.org/2000/svg">
<path fill-rule="evenodd" clip-rule="evenodd" d="M250.926 18.4264C227.495 -5.00508 189.505 -5.00508 166.074 18.4264L18.4264 166.074C-5.00508 189.505 -5.00508 227.495 18.4264 250.926L166.074 398.574C189.505 422.005 227.495 422.005 250.926 398.574L398.574 250.926C422.005 227.495 422.005 189.505 398.574 166.074L250.926 18.4264ZM106.036 256.245L63.4853 213.694C58.799 209.008 58.799 201.41 63.4853 196.723L162.723 97.4852C167.41 92.799 175.008 92.799 179.694 97.4853L200.515 118.306C205.201 122.992 212.799 122.992 217.485 118.306L238.306 97.4853C242.992 92.799 250.59 92.799 255.277 97.4852L354.515 196.723C359.201 201.41 359.201 209.008 354.515 213.694L217.485 350.723C212.799 355.41 205.201 355.41 200.515 350.723L148.249 298.458C143.563 293.771 143.563 286.173 148.249 281.487L170.015 259.721C174.701 255.035 182.299 255.035 186.985 259.721L200.515 273.251C205.201 277.937 212.799 277.937 217.485 273.251L277.042 213.694C281.729 209.008 281.729 201.41 277.042 196.723L255.277 174.958C250.59 170.271 242.992 170.271 238.306 174.958L217.485 195.778C212.799 200.465 205.201 200.465 200.515 195.779L179.694 174.958C175.008 170.271 167.41 170.271 162.723 174.958L140.958 196.723C136.271 201.41 136.271 209.008 140.958 213.694L144.772 217.509C149.459 222.195 149.459 229.793 144.772 234.479L123.007 256.245C118.32 260.931 110.722 260.931 106.036 256.245Z" fill="#6655D0"/>
</svg>
